<svg xmlns="http://www.w3.org/2000/svg" viewBox="0 0 1024 1024" width="1024" height="1024">
  <defs><linearGradient id="bg" x1="0" y1="0" x2="0" y2="1">
    <stop offset="0" stop-color="#F2EFE6"/>
    <stop offset="1" stop-color="#E4DFD2"/>
  </linearGradient></defs>
  <rect width="1024" height="1024" fill="url(#bg)"/>
  <path d="M 512.0 192.0 L 466.0 512.0 L 558.0 512.0 Z" fill="#1C4E8F"/>
  <path d="M 832.0 512.0 L 512.0 466.0 L 512.0 558.0 Z" fill="#1C4E8F"/>
  <path d="M 512.0 832.0 L 558.0 512.0 L 466.0 512.0 Z" fill="#1C4E8F"/>
  <path d="M 192.0 512.0 L 512.0 558.0 L 512.0 466.0 Z" fill="#1C4E8F"/>
  <path d="M 646.4 377.6 L 491.8 491.8 L 532.2 532.2 Z" fill="#2E6BB3"/>
  <path d="M 377.6 377.6 L 491.8 532.2 L 532.2 491.8 Z" fill="#2E6BB3"/>
  <path d="M 377.6 646.4 L 532.2 532.2 L 491.8 491.8 Z" fill="#2E6BB3"/>
  <path d="M 646.4 646.4 L 532.2 491.8 L 491.8 532.2 Z" fill="#2E6BB3"/>
  <path d="M 690.2 293.8 Q 698.2 325.8 730.2 333.8 Q 698.2 341.8 690.2 373.8 Q 682.2 341.8 650.2 333.8 Q 682.2 325.8 690.2 293.8 Z" fill="#C08A2E"/>
  <path d="M 333.8 293.8 Q 341.8 325.8 373.8 333.8 Q 341.8 341.8 333.8 373.8 Q 325.8 341.8 293.8 333.8 Q 325.8 325.8 333.8 293.8 Z" fill="#C08A2E"/>
  <path d="M 333.8 650.2 Q 341.8 682.2 373.8 690.2 Q 341.8 698.2 333.8 730.2 Q 325.8 698.2 293.8 690.2 Q 325.8 682.2 333.8 650.2 Z" fill="#C08A2E"/>
  <path d="M 690.2 650.2 Q 698.2 682.2 730.2 690.2 Q 698.2 698.2 690.2 730.2 Q 682.2 698.2 650.2 690.2 Q 682.2 682.2 690.2 650.2 Z" fill="#C08A2E"/>
  <circle cx="512.0" cy="512.0" r="52" fill="#F2EFE6" stroke="#1C4E8F" stroke-width="22"/>
  <path d="M 512.0 482.0 Q 518.0 506.0 542.0 512.0 Q 518.0 518.0 512.0 542.0 Q 506.0 518.0 482.0 512.0 Q 506.0 506.0 512.0 482.0 Z" fill="#C08A2E"/>
</svg>
